<svg width="19" height="15" viewBox="0 0 19 15" fill="none" xmlns="http://www.w3.org/2000/svg">
<path d="M0.459418 13.159C-0.00521469 13.4575 -0.139846 14.0762 0.158709 14.5408C0.457264 15.0055 1.07595 15.1401 1.54058 14.8415L1 14.0002L0.459418 13.159ZM16.9865 0.836208C16.8959 0.291404 16.3808 -0.076805 15.836 0.0137899L6.95788 1.49012C6.41307 1.58071 6.04486 2.09581 6.13546 2.64061C6.22605 3.18541 6.74115 3.55362 7.28595 3.46303L15.1776 2.15073L16.4899 10.0424C16.5805 10.5872 17.0956 10.9554 17.6404 10.8648C18.1852 10.7742 18.5534 10.2591 18.4628 9.7143L16.9865 0.836208ZM1 14.0002L1.54058 14.8415L5.6665 12.1904L5.12592 11.3491L4.58534 10.5078L0.459418 13.159L1 14.0002ZM5.12592 11.3491L5.6665 12.1904C10.0208 9.39245 13.8036 5.79236 16.8135 1.58178L16 1.00024L15.1865 0.418707C12.324 4.42309 8.72642 7.84688 4.58534 10.5078L5.12592 11.3491Z" fill="#554B4B"/>
</svg>
