<svg width="27" height="27" viewBox="0 0 27 27" fill="none" xmlns="http://www.w3.org/2000/svg">
<path d="M21.6447 24.9352C10.381 24.9352 1.25 15.8041 1.25 4.54045C1.25 4.03227 1.26859 3.52842 1.30512 3.02957C1.34704 2.45706 1.368 2.17081 1.51803 1.91023C1.64229 1.69441 1.8625 1.48974 2.08682 1.38157C2.35764 1.25098 2.67353 1.25098 3.30528 1.25098H7.01226C7.54353 1.25098 7.80916 1.25098 8.03687 1.33841C8.23801 1.41565 8.41712 1.5411 8.55845 1.70374C8.71843 1.88786 8.80921 2.1375 8.99078 2.63678L10.5251 6.85631C10.7363 7.4372 10.842 7.72765 10.8241 8.00321C10.8083 8.2462 10.7253 8.48003 10.5845 8.67869C10.4248 8.90398 10.1598 9.06299 9.62978 9.381L7.82895 10.4615C9.41039 13.9469 12.237 16.7772 15.7237 18.3562L16.8042 16.5555C17.1222 16.0253 17.2812 15.7603 17.5064 15.6007C17.7051 15.4599 17.9389 15.3769 18.182 15.3611C18.4575 15.3432 18.748 15.4489 19.3289 15.6601L23.5484 17.1944C24.0476 17.376 24.2974 17.4668 24.4814 17.6268C24.6441 17.7681 24.7696 17.9472 24.8467 18.1483C24.9342 18.376 24.9342 18.6416 24.9342 19.173V22.8799C24.9342 23.5116 24.9342 23.8276 24.8036 24.0983C24.6954 24.3227 24.4908 24.543 24.275 24.6672C24.0143 24.8172 23.7282 24.8381 23.1557 24.8801C22.6567 24.9166 22.1529 24.9352 21.6447 24.9352Z" stroke="black" stroke-width="2.5" stroke-linecap="round" stroke-linejoin="round"/>
</svg>
