<svg width="19" height="21" viewBox="0 0 19 21" fill="none" xmlns="http://www.w3.org/2000/svg">
<path d="M0.5 17.5V12.3814C0.5 10.7245 1.84315 9.38136 3.5 9.38136H5.50033C5.62747 9.38136 5.74118 9.30221 5.78533 9.18299L5.82706 9.07033C6.94302 6.05722 11.2291 6.12784 12.2451 9.17609C12.286 9.29867 12.4007 9.38136 12.5299 9.38136H14.8729C16.5297 9.38136 17.8729 10.7245 17.8729 12.3814V17.5C17.8729 19.1569 16.5297 20.5 14.8729 20.5H3.5C1.84315 20.5 0.5 19.1569 0.5 17.5Z" fill="#ECECEC" stroke="black"/>
<circle cx="9.18571" cy="14.9407" r="3.12712" fill="#323232"/>
<line x1="8.48629" y1="14.9346" x2="10.571" y2="12.8498" stroke="black"/>
<line x1="9.17965" y1="15.6295" x2="11.2644" y2="13.5447" stroke="black"/>
</svg>
