<svg width="12" height="13" viewBox="0 0 12 13" fill="none" xmlns="http://www.w3.org/2000/svg">
<path d="M0.5 9.5V7.59412C0.5 6.55926 1.33892 5.72034 2.37379 5.72034H3.54898C3.62651 5.72034 3.69584 5.67208 3.72276 5.59938L3.74821 5.53069C4.42868 3.69342 7.04211 3.73649 7.66167 5.59518C7.68658 5.66992 7.75653 5.72034 7.83532 5.72034H9.12326C10.2112 5.72034 11.0932 6.60232 11.0932 7.6903V9.5C11.0932 11.1569 9.75008 12.5 8.09322 12.5H3.5C1.84315 12.5 0.5 11.1569 0.5 9.5Z" fill="#ECECEC" stroke="white"/>
<circle cx="5.7974" cy="9.11015" r="1.90678" fill="#323232"/>
<line x1="5.23238" y1="8.96847" x2="6.50357" y2="7.69728" stroke="white"/>
<line x1="5.65426" y1="9.39224" x2="6.92545" y2="8.12105" stroke="white"/>
</svg>
