<svg width="26" height="30" viewBox="0 0 26 30" fill="none" xmlns="http://www.w3.org/2000/svg">
<path d="M0.5 26.5V16.5C0.5 14.8431 1.84315 13.5 3.5 13.5H7.69559C7.87855 13.5 8.04218 13.3861 8.10572 13.2145L8.16577 13.0524C9.77167 8.71649 15.9394 8.81812 17.4015 13.2046C17.4603 13.381 17.6254 13.5 17.8114 13.5H22.5C24.1569 13.5 25.5 14.8431 25.5 16.5V26.5C25.5 28.1569 24.1569 29.5 22.5 29.5H3.5C1.84315 29.5 0.5 28.1569 0.5 26.5Z" fill="#ECECEC" stroke="black"/>
<circle cx="13" cy="21.5" r="4.5" fill="#323232"/>
<line x1="12.1464" y1="21.6464" x2="15.1464" y2="18.6464" stroke="white"/>
<line x1="13.1464" y1="22.6464" x2="16.1464" y2="19.6464" stroke="white"/>
</svg>
