<svg width="24" height="21" viewBox="0 0 24 21" fill="none" xmlns="http://www.w3.org/2000/svg">
<path d="M12 1C15.2289 1 17.4164 1.71533 18.915 2.77441C20.4084 3.8298 21.3159 5.29618 21.8604 6.98535C22.4094 8.68889 22.5786 10.5893 22.6016 12.4482C22.613 13.3737 22.5888 14.2754 22.5605 15.1289C22.5326 15.9731 22.5 16.7883 22.5 17.5C22.5 18.769 22.2153 19.2577 21.9746 19.4697C21.7134 19.6996 21.2316 19.852 20.2676 19.8213C19.3157 19.7909 18.1683 19.5991 16.7334 19.3955C15.3332 19.1968 13.7295 19 12 19C5.74641 19 1 14.8076 1 10C1 5.19241 5.74641 1 12 1Z" stroke="black" stroke-width="2"/>
</svg>
