<svg width="25" height="25" viewBox="0 0 25 25" fill="none" xmlns="http://www.w3.org/2000/svg">
<g clip-path="url(#clip0_3383_3)">
<rect width="25" height="25" rx="12.5" fill="#FF9D00"/>
<path d="M4.29346 12.5083C4.29346 17.0401 7.96746 20.7141 12.4993 20.7141C17.0313 20.7141 20.7053 17.0401 20.7053 12.5083H4.29346Z" fill="white"/>
<path d="M20.188 13.0083C19.9303 17.0309 16.5873 20.2142 12.4995 20.2144C8.41183 20.2144 5.06874 17.0309 4.81104 13.0083H20.188Z" stroke="black" stroke-opacity="0.71"/>
<path d="M11.562 8.37635C11.4731 6.72764 10.2964 5.55105 8.64787 5.46227C7.00291 5.37365 5.81528 6.86131 5.73379 8.37635C5.69945 9.01268 6.68651 9.00936 6.72069 8.37635C6.85452 5.89234 10.4415 5.89234 10.5751 8.37635C10.6092 9.00936 11.5963 9.01268 11.562 8.37635Z" fill="#333333"/>
<path d="M18.6728 8.37635C18.584 6.72764 17.4072 5.55105 15.7587 5.46227C14.1137 5.37365 12.9263 6.86131 12.8446 8.37635C12.8103 9.01268 13.7973 9.00936 13.8315 8.37635C13.9654 5.89234 17.5521 5.89234 17.6859 8.37635C17.7201 9.00936 18.7072 9.01268 18.6728 8.37635Z" fill="#333333"/>
</g>
<rect x="0.5" y="0.5" width="24" height="24" rx="12" stroke="#4B4B4B"/>
<defs>
<clipPath id="clip0_3383_3">
<rect width="25" height="25" rx="12.5" fill="white"/>
</clipPath>
</defs>
</svg>
