<svg width="34" height="32" viewBox="0 0 34 32" fill="none" xmlns="http://www.w3.org/2000/svg">
<path d="M33.4293 14.3075L28.2764 9.1546V3.20218C28.2764 2.12589 27.4043 1.25365 26.3264 1.25365C25.251 1.25365 24.3788 2.12589 24.3788 3.20218V5.25708L20.5421 1.42022C18.6452 -0.475659 15.3471 -0.472296 13.4545 1.42365L0.570432 14.3075C-0.190144 15.0696 -0.190144 16.3027 0.570432 17.0636C1.33135 17.8255 2.56686 17.8255 3.3275 17.0636L16.2104 4.17942C16.63 3.76194 17.3698 3.76194 17.7872 4.17819L30.6723 17.0636C31.0544 17.4446 31.5525 17.634 32.0505 17.634C32.5495 17.634 33.0485 17.4443 33.4294 17.0636C34.1902 16.3027 34.1902 15.0696 33.4293 14.3075Z" fill="white"/>
<path d="M17.6768 7.87818C17.3025 7.50407 16.6964 7.50407 16.3232 7.87818L4.99032 19.2077C4.8114 19.3865 4.70996 19.6307 4.70996 19.8856V28.1489C4.70996 30.0879 6.28218 31.6601 8.22116 31.6601H13.8321V22.9706H20.1667V31.6601H25.7777C27.7166 31.6601 29.2888 30.0879 29.2888 28.149V19.8856C29.2888 19.6307 29.1883 19.3865 29.0085 19.2077L17.6768 7.87818Z" fill="white"/>
</svg>
