<svg width="22" height="22" viewBox="0 0 22 22" fill="none" xmlns="http://www.w3.org/2000/svg">
<path fill-rule="evenodd" clip-rule="evenodd" d="M1.25 9.39286V12.1071C1.25 16.6043 4.89568 20.25 9.39286 20.25H12.1071C16.6043 20.25 20.25 16.6043 20.25 12.1071V9.39286C20.25 4.89568 16.6043 1.25 12.1071 1.25H9.39286C4.89568 1.25 1.25 4.89568 1.25 9.39286Z" stroke="white" stroke-width="2.5" stroke-linecap="round" stroke-linejoin="round"/>
<path d="M9.73214 16.1785C9.73214 16.7406 10.1879 17.1963 10.75 17.1963C11.3121 17.1963 11.7679 16.7406 11.7679 16.1785H9.73214ZM10.75 9.39275H11.7679C11.7679 8.83062 11.3121 8.3749 10.75 8.3749V9.39275ZM9.39286 8.3749C8.83073 8.3749 8.375 8.83062 8.375 9.39275C8.375 9.95488 8.83073 10.4106 9.39286 10.4106V8.3749ZM10.75 17.1963C11.3121 17.1963 11.7679 16.7406 11.7679 16.1785C11.7679 15.6163 11.3121 15.1606 10.75 15.1606V17.1963ZM9.39286 15.1606C8.83073 15.1606 8.375 15.6163 8.375 16.1785C8.375 16.7406 8.83073 17.1963 9.39286 17.1963V15.1606ZM10.75 15.1606C10.1879 15.1606 9.73214 15.6163 9.73214 16.1785C9.73214 16.7406 10.1879 17.1963 10.75 17.1963V15.1606ZM12.1071 17.1963C12.6693 17.1963 13.125 16.7406 13.125 16.1785C13.125 15.6163 12.6693 15.1606 12.1071 15.1606V17.1963ZM11.7679 5.32132C11.7679 4.75918 11.3121 4.30347 10.75 4.30347C10.1879 4.30347 9.73214 4.75918 9.73214 5.32132H11.7679ZM9.73214 6.67847C9.73214 7.24061 10.1879 7.69632 10.75 7.69632C11.3121 7.69632 11.7679 7.24061 11.7679 6.67847H9.73214ZM11.7679 16.1785V9.39275H9.73214V16.1785H11.7679ZM10.75 8.3749H9.39286V10.4106H10.75V8.3749ZM10.75 15.1606H9.39286V17.1963H10.75V15.1606ZM10.75 17.1963H12.1071V15.1606H10.75V17.1963ZM9.73214 5.32132V6.67847H11.7679V5.32132H9.73214Z" fill="white"/>
</svg>
