<svg width="30" height="30" viewBox="0 0 30 30" fill="none" xmlns="http://www.w3.org/2000/svg">
<path d="M8.4375 19.8399C6.14719 20.4065 4.6875 21.2638 4.6875 22.2231C4.6875 23.9294 9.30456 25.3125 15 25.3125C20.6954 25.3125 25.3125 23.9294 25.3125 22.2231C25.3125 21.2638 23.8529 20.4065 21.5625 19.8399M16.875 11.25C16.875 12.2855 16.0355 13.125 15 13.125C13.9645 13.125 13.125 12.2855 13.125 11.25C13.125 10.2145 13.9645 9.375 15 9.375C16.0355 9.375 16.875 10.2145 16.875 11.25ZM21.5625 11.0156C21.5625 15 17.8125 19.6875 15 21.5625C12.1875 19.6875 8.4375 15 8.4375 11.0156C8.4375 7.5207 11.25 4.6875 15 4.6875C18.75 4.6875 21.5625 7.5207 21.5625 11.0156Z" stroke="black" stroke-linecap="round" stroke-linejoin="round"/>
</svg>
