<svg width="21" height="22" viewBox="0 0 21 22" fill="none" xmlns="http://www.w3.org/2000/svg">
<path d="M7.36783 16H3.82073C2.50614 16 1.84886 16 1.71056 15.9023C1.55519 15.7925 1.51723 15.7277 1.5004 15.5436C1.48543 15.3797 1.88828 14.7486 2.694 13.4866C3.52588 12.1835 4.23226 10.2862 4.23226 7.6C4.23226 6.11479 4.8926 4.69041 6.06802 3.6402C7.24345 2.59 8.83767 2 10.5 2C12.1623 2 13.7565 2.59 14.9319 3.6402C16.1074 4.69041 16.7677 6.11479 16.7677 7.6C16.7677 10.2862 17.4741 12.1835 18.306 13.4866C19.1116 14.7486 19.5145 15.3797 19.4996 15.5436C19.4828 15.7277 19.4448 15.7925 19.2894 15.9023C19.1511 16 18.4938 16 17.1793 16H13.6338M7.36783 16L7.36612 17C7.36612 18.6569 8.76925 20 10.5 20C12.2308 20 13.6338 18.6569 13.6338 17V16M7.36783 16H13.6338" stroke="white" stroke-width="3" stroke-linecap="round" stroke-linejoin="round"/>
<circle cx="16" cy="3.5" r="3.5" fill="#FF2323"/>
</svg>
