<svg width="21" height="21" viewBox="0 0 21 21" fill="none" xmlns="http://www.w3.org/2000/svg">
<path d="M7.36783 15.5H3.82073C2.50614 15.5 1.84886 15.5 1.71056 15.4023C1.55519 15.2925 1.51723 15.2277 1.5004 15.0436C1.48543 14.8797 1.88828 14.2486 2.694 12.9866C3.52588 11.6835 4.23226 9.7862 4.23226 7.1C4.23226 5.61479 4.8926 4.19041 6.06802 3.1402C7.24345 2.09 8.83767 1.5 10.5 1.5C12.1623 1.5 13.7565 2.09 14.9319 3.1402C16.1074 4.19041 16.7677 5.61479 16.7677 7.1C16.7677 9.7862 17.4741 11.6835 18.306 12.9866C19.1116 14.2486 19.5145 14.8797 19.4996 15.0436C19.4828 15.2277 19.4448 15.2925 19.2894 15.4023C19.1511 15.5 18.4938 15.5 17.1793 15.5H13.6338M7.36783 15.5L7.36612 16.5C7.36612 18.1569 8.76925 19.5 10.5 19.5C12.2308 19.5 13.6338 18.1569 13.6338 16.5V15.5M7.36783 15.5H13.6338" stroke="white" stroke-width="3" stroke-linecap="round" stroke-linejoin="round"/>
</svg>
