<svg width="11" height="12" viewBox="0 0 11 12" fill="none" xmlns="http://www.w3.org/2000/svg">
<path d="M5.61958 3.30081L1 8.4336V11H3.30979L7.92937 5.8672M5.61958 3.30081L7.27604 1.46028L7.27708 1.45919C7.50506 1.20583 7.61928 1.07893 7.75094 1.0314C7.86695 0.989532 7.99185 0.989532 8.10786 1.0314C8.2394 1.0789 8.3535 1.20566 8.58119 1.45865L9.58583 2.57491C9.8145 2.82899 9.92889 2.95609 9.97174 3.10259C10.0094 3.23145 10.0094 3.37025 9.97174 3.49912C9.92895 3.64551 9.81473 3.77241 9.58635 4.02614L9.58583 4.02668L7.92937 5.8672M5.61958 3.30081L7.92937 5.8672" stroke="white" stroke-width="2" stroke-linecap="round" stroke-linejoin="round"/>
</svg>
