<svg width="23" height="23" viewBox="0 0 23 23" fill="none" xmlns="http://www.w3.org/2000/svg">
<path fill-rule="evenodd" clip-rule="evenodd" d="M19.0469 20.7H3.9539C3.14155 20.7 2.54168 19.8984 2.84807 19.1613C4.26968 15.7527 7.60947 13.8 11.4998 13.8C15.3914 13.8 18.7311 15.7527 20.1528 19.1613C20.4592 19.8984 19.8593 20.7 19.0469 20.7ZM6.80417 6.89998C6.80417 4.36308 8.91134 2.29998 11.4998 2.29998C14.0895 2.29998 16.1955 4.36308 16.1955 6.89998C16.1955 9.43688 14.0895 11.5 11.4998 11.5C8.91134 11.5 6.80417 9.43688 6.80417 6.89998ZM22.949 20.2814C22.0956 16.4185 19.4261 13.5677 15.9126 12.2739C17.7744 10.8054 18.8603 8.43057 18.4611 5.83042C17.9986 2.81397 15.4371 0.400173 12.3451 0.0482734C8.07669 -0.438177 4.45633 2.81633 4.45633 6.89998C4.45633 9.07348 5.48468 11.0101 7.08825 12.2739C3.57355 13.5677 0.905238 16.4185 0.0506276 20.2814C-0.259286 21.6855 0.895848 23 2.36207 23H20.6376C22.105 23 23.2601 21.6855 22.949 20.2814Z" fill="white"/>
</svg>
