<svg width="21" height="21" viewBox="0 0 21 21" fill="none" xmlns="http://www.w3.org/2000/svg">
<g clip-path="url(#clip0_3394_88)">
<path d="M14.875 14.875L18.375 18.375" stroke="#323232" stroke-width="3" stroke-linecap="round" stroke-linejoin="round"/>
<path d="M16.625 9.625C16.625 13.491 13.491 16.625 9.625 16.625C5.759 16.625 2.625 13.491 2.625 9.625C2.625 5.759 5.759 2.625 9.625 2.625C13.491 2.625 16.625 5.759 16.625 9.625Z" stroke="#323232" stroke-width="3"/>
<path d="M15.1172 -0.345703C15.3907 -0.324828 15.6547 -0.230969 15.8809 -0.0732422C16.1391 0.10689 16.3364 0.361754 16.4453 0.657227L17.4932 3.50586L20.3428 4.55566C20.6381 4.66455 20.8932 4.86095 21.0732 5.11914C21.2534 5.37749 21.3496 5.68504 21.3496 6C21.3496 6.31496 21.2534 6.62251 21.0732 6.88086C20.8931 7.13914 20.6382 7.33645 20.3428 7.44531L17.4932 8.49316L16.4443 11.3418C16.3355 11.6373 16.1392 11.8931 15.8809 12.0732C15.6225 12.2534 15.315 12.3496 15 12.3496C14.685 12.3496 14.3775 12.2534 14.1191 12.0732C13.861 11.8932 13.6646 11.6381 13.5557 11.3428L12.5059 8.49316L9.65723 7.44434C9.36189 7.33545 9.10683 7.13905 8.92676 6.88086C8.74661 6.62251 8.65039 6.31496 8.65039 6C8.65039 5.68504 8.74661 5.37749 8.92676 5.11914C9.10683 4.86095 9.36189 4.66455 9.65723 4.55566L12.5059 3.50586L13.5557 0.657227C13.6646 0.361889 13.861 0.106826 14.1191 -0.0732422C14.3775 -0.253392 14.685 -0.349609 15 -0.349609L15.1172 -0.345703ZM14.4082 4.49609C14.3313 4.70515 14.2102 4.89522 14.0527 5.05273C13.8952 5.21024 13.7051 5.33128 13.4961 5.4082L11.8896 6L13.4961 6.5918C13.7051 6.66871 13.8952 6.78976 14.0527 6.94727C14.2102 7.10477 14.3313 7.29487 14.4082 7.50391L15 9.10938L15.5918 7.50391C15.6687 7.29486 15.7898 7.10478 15.9473 6.94727C16.1048 6.78975 16.2949 6.66873 16.5039 6.5918L18.1094 6L16.5039 5.4082C16.2949 5.33129 16.1048 5.21024 15.9473 5.05273C15.7898 4.89523 15.6687 4.70513 15.5918 4.49609L15 2.88965L14.4082 4.49609Z" fill="#1C1C1C" stroke="#D9D9D9" stroke-width="0.7"/>
</g>
<defs>
<clipPath id="clip0_3394_88">
<rect width="21" height="21" fill="white"/>
</clipPath>
</defs>
</svg>
