<svg width="25" height="26" viewBox="0 0 25 26" fill="none" xmlns="http://www.w3.org/2000/svg">
<path d="M12.5 1C13.131 1 13.5552 1.00049 13.8838 1.02246C14.2034 1.04385 14.3605 1.08212 14.4639 1.12402C14.8206 1.26892 15.1087 1.52863 15.2852 1.85156L15.3545 1.99414C15.4047 2.11304 15.4482 2.30289 15.4658 2.76562C15.5059 3.81228 16.0571 4.81106 17.0205 5.35645C17.981 5.90015 19.1234 5.86533 20.0508 5.38477V5.38379C20.4688 5.1671 20.6652 5.1059 20.8047 5.08789C21.2448 5.03115 21.6876 5.1488 22.0352 5.41016C22.1217 5.47525 22.2328 5.58688 22.4102 5.8457C22.5929 6.11236 22.8043 6.47149 23.1201 7.00781C23.4359 7.54412 23.647 7.9031 23.791 8.19141C23.896 8.40155 23.9457 8.53669 23.9697 8.63379L23.9863 8.71973C24.0418 9.13426 23.9273 9.55614 23.6641 9.89258C23.5816 9.99779 23.4327 10.1326 23.0312 10.3799C22.1413 10.9282 21.5264 11.8914 21.5264 13C21.5264 14.1084 22.1412 15.0718 23.0312 15.6201C23.4322 15.8671 23.5815 16.0021 23.6641 16.1074C23.8945 16.402 24.0109 16.7619 23.999 17.125L23.9863 17.2803C23.9727 17.3814 23.931 17.5283 23.791 17.8086C23.647 18.0969 23.4359 18.4559 23.1201 18.9922C22.8042 19.5287 22.592 19.8876 22.4092 20.1543C22.2319 20.413 22.1217 20.5247 22.0352 20.5898C21.6876 20.8512 21.2447 20.9689 20.8047 20.9121C20.665 20.8941 20.4683 20.832 20.0498 20.6152H20.0508C19.1236 20.1347 17.9811 20.0998 17.0205 20.6436C16.0572 21.189 15.5058 22.1877 15.4658 23.2344C15.4526 23.5815 15.425 23.7751 15.3906 23.9004L15.3545 24.0059C15.1902 24.3948 14.8717 24.7103 14.4639 24.876C14.3605 24.9179 14.2034 24.9562 13.8838 24.9775C13.5552 24.9995 13.131 25 12.5 25C11.8691 25 11.4448 24.9995 11.1162 24.9775C10.7966 24.9562 10.6395 24.9179 10.5361 24.876C10.1793 24.731 9.8904 24.4716 9.71387 24.1484L9.64551 24.0059C9.59524 23.8868 9.55182 23.6969 9.53418 23.2344C9.49418 22.1876 8.94277 21.189 7.97949 20.6436C7.01905 20.0999 5.87663 20.1346 4.94922 20.6152C4.53067 20.8321 4.33482 20.8941 4.19531 20.9121C3.75522 20.9688 3.31239 20.8511 2.96484 20.5898L2.96387 20.5889C2.87751 20.5238 2.76691 20.4126 2.58984 20.1543C2.40709 19.8876 2.19568 19.5285 1.87988 18.9922C1.56409 18.4559 1.353 18.0969 1.20898 17.8086C1.06897 17.5283 1.02724 17.3813 1.01367 17.2803C0.958072 16.8658 1.07258 16.4439 1.33594 16.1074C1.41833 16.0023 1.56749 15.8674 1.96875 15.6201C2.8588 15.0718 3.47357 14.1085 3.47363 13C3.47367 11.8914 2.85882 10.9274 1.96875 10.3789C1.56754 10.1317 1.41821 9.99762 1.33594 9.89258C1.07257 9.55602 0.958103 9.13414 1.01367 8.71973C1.02724 8.61867 1.06902 8.47163 1.20898 8.19141C1.35303 7.90304 1.56398 7.54335 1.87988 7.00684C2.19565 6.47056 2.40807 6.11234 2.59082 5.8457C2.76817 5.58696 2.87832 5.47526 2.96484 5.41016C3.31241 5.14877 3.75523 5.03117 4.19531 5.08789C4.33486 5.1059 4.53165 5.16687 4.9502 5.38379C5.87745 5.86427 7.01914 5.90002 7.97949 5.35645C8.94282 4.81109 9.49423 3.81234 9.53418 2.76562C9.55182 2.30299 9.59523 2.11317 9.64551 1.99414C9.80982 1.60517 10.1282 1.28969 10.5361 1.12402C10.6395 1.08212 10.7966 1.04384 11.1162 1.02246C11.4448 1.0005 11.869 1 12.5 1ZM12.5 8.09961C9.76963 8.09961 7.52246 10.2753 7.52246 13C7.52246 15.7247 9.76963 17.9004 12.5 17.9004C15.2304 17.9004 17.4775 15.7247 17.4775 13C17.4775 10.2753 15.2304 8.09962 12.5 8.09961Z" stroke="white" stroke-width="2"/>
</svg>
