<svg width="27" height="27" viewBox="0 0 27 27" fill="none" xmlns="http://www.w3.org/2000/svg">
<path fill-rule="evenodd" clip-rule="evenodd" d="M22.1057 0.89951C20.7938 -0.821036 18.0105 0.0916041 18.0105 2.24227V4.40181C13.7667 4.35158 10.8637 5.81032 8.93003 7.84748C6.86288 10.0252 6.01265 12.7478 5.65637 14.6095C5.47823 15.5402 6.08876 16.2155 6.73039 16.4487C7.34336 16.6715 8.16243 16.5761 8.70903 15.9513C10.2604 14.178 13.2744 11.7031 18.0105 11.8647V14.6328C18.0105 16.7834 20.7938 17.696 22.1057 15.9754L26.3175 10.4516C27.2275 9.25807 27.2275 7.61692 26.3175 6.42337L22.1057 0.89951ZM8.41726 13.0607C10.4481 11.2884 13.3633 9.62514 18.0105 9.62514H19.1483C19.7766 9.62514 20.2859 10.1262 20.2859 10.7442L20.2857 14.6328L24.4973 9.10888C24.8007 8.71102 24.8007 8.16398 24.4973 7.76612L20.2857 2.24227V5.5208C20.2857 6.13879 19.7764 6.63976 19.1481 6.63976H18.0105C12.8917 6.63976 10.593 9.37478 10.593 9.37478C9.53465 10.4897 8.85357 11.8147 8.41726 13.0607Z" fill="#0F0F0F"/>
<path d="M7.875 1.12939H4.5C2.63604 1.12939 1.125 2.64043 1.125 4.50439V22.5044C1.125 24.3684 2.63604 25.8794 4.5 25.8794H22.5C24.364 25.8794 25.875 24.3684 25.875 22.5044V19.1294C25.875 18.508 25.3713 18.0044 24.75 18.0044C24.1287 18.0044 23.625 18.508 23.625 19.1294V22.5044C23.625 23.1257 23.1213 23.6294 22.5 23.6294H4.5C3.87868 23.6294 3.375 23.1257 3.375 22.5044V4.50439C3.375 3.88307 3.87868 3.37939 4.5 3.37939H7.875C8.49632 3.37939 9 2.87571 9 2.25439C9 1.63307 8.49632 1.12939 7.875 1.12939Z" fill="#0F0F0F"/>
</svg>
