<svg width="18" height="18" viewBox="0 0 18 18" fill="none" xmlns="http://www.w3.org/2000/svg">
<g clip-path="url(#clip0_3355_621)">
<path fill-rule="evenodd" clip-rule="evenodd" d="M14.7371 0.599674C13.8625 -0.547357 12.007 0.0610694 12.007 1.49485V2.93454C9.17783 2.90105 7.24249 3.87355 5.95335 5.23165C4.57526 6.68347 4.00844 8.49855 3.77091 9.73965C3.65216 10.3601 4.05917 10.8103 4.48693 10.9658C4.89557 11.1143 5.44162 11.0507 5.80602 10.6342C6.84027 9.45202 8.84963 7.8021 12.007 7.9098V9.75517C12.007 11.1889 13.8625 11.7973 14.7371 10.6503L17.545 6.96775C18.1516 6.17205 18.1516 5.07795 17.545 4.28224L14.7371 0.599674ZM5.61151 8.70712C6.96541 7.52557 8.90888 6.41676 12.007 6.41676H12.7655C13.1844 6.41676 13.5239 6.75077 13.5239 7.16278L13.5238 9.75517L16.3316 6.07258C16.5338 5.80735 16.5338 5.44265 16.3316 5.17741L13.5238 1.49485V3.68053C13.5238 4.09252 13.1842 4.42651 12.7654 4.42651H12.007C8.59448 4.42651 7.06197 6.24985 7.06197 6.24985C6.35643 6.99313 5.90238 7.8765 5.61151 8.70712Z" fill="#0F0F0F"/>
<path d="M5.25 0.75293H3C1.75736 0.75293 0.75 1.76028 0.75 3.00293V15.0029C0.75 16.2456 1.75736 17.2529 3 17.2529H15C16.2427 17.2529 17.25 16.2456 17.25 15.0029V12.7529C17.25 12.3387 16.9142 12.0029 16.5 12.0029C16.0858 12.0029 15.75 12.3387 15.75 12.7529V15.0029C15.75 15.4171 15.4142 15.7529 15 15.7529H3C2.58579 15.7529 2.25 15.4171 2.25 15.0029V3.00293C2.25 2.58871 2.58579 2.25293 3 2.25293H5.25C5.66421 2.25293 6 1.91714 6 1.50293C6 1.08871 5.66421 0.75293 5.25 0.75293Z" fill="#0F0F0F"/>
</g>
<defs>
<clipPath id="clip0_3355_621">
<rect width="18" height="18" fill="white"/>
</clipPath>
</defs>
</svg>
