<svg width="37" height="28" viewBox="0 0 37 28" fill="none" xmlns="http://www.w3.org/2000/svg">
<path d="M22 7.16984C22 4.03809 18.5638 2.12108 15.8989 3.7661L10.3659 7.18152C9.73445 7.57133 9.00697 7.77778 8.26486 7.77778H5.2C2.8804 7.77778 1 9.17067 1 10.8889V17.1111C1 18.8294 2.8804 20.2222 5.2 20.2222H8.26486C9.00697 20.2222 9.73445 20.4287 10.3659 20.8185L15.8989 24.2339C18.5638 25.8789 22 23.9619 22 20.8302V7.16984Z" stroke="black" stroke-width="2" stroke-linecap="round" stroke-linejoin="round"/>
<path d="M29 21C30.3067 16.4248 30.3067 11.5752 29 7" stroke="black" stroke-width="2" stroke-linecap="round"/>
<path d="M32.999 25C35.5829 17.8943 35.5829 10.1057 32.999 3" stroke="black" stroke-width="2" stroke-linecap="round"/>
</svg>
